<?xml version="1.0" encoding="utf-8"?>
<svg version="1.1" id="Layer_1" xmlns="http://www.w3.org/2000/svg" xmlns:xlink="http://www.w3.org/1999/xlink" x="0px" y="0px"
	 viewBox="0 0 800 800" style="enable-background:new 0 0 800 800;" xml:space="preserve">
<g>
	<g>
		<path style="fill:#FEA400;" d="M321.208,231.216c2.389,2.622,5.353,4.343,8.368,5.28c3.012,0.929,6.101,1.287,9.101,0.929
			c-5.594-1.89-10.701-5.112-12.848-9.486c-2.233-4.251-1.517-9.25,0.156-14.091c1.737-4.889,4.439-9.667,7.427-14.311
			c3.001-4.645,6.342-9.203,9.853-13.673c3.655-4.761,7.13-9.784,10.122-15.169c2.939-5.42,5.526-11.18,6.768-17.674
			c0.591-3.221,0.872-6.631,0.289-10.105c-0.534-3.442-1.986-6.921-4.335-9.538c-2.352-2.602-5.32-4.339-8.34-5.28
			c-3.024-0.936-6.096-1.259-9.084-0.936c5.573,1.885,10.704,5.13,12.848,9.518c2.231,4.25,1.488,9.217-0.181,14.058
			c-1.737,4.91-4.407,9.688-7.407,14.316c-2.996,4.66-6.345,9.196-9.84,13.685c-3.655,4.777-7.13,9.768-10.122,15.173
			c-2.948,5.4-5.542,11.19-6.76,17.665c-0.611,3.222-0.881,6.664-0.306,10.105C317.477,225.139,318.904,228.59,321.208,231.216z"/>
		<path style="fill:#FEA400;" d="M382.16,202.21c2.365,2.585,5.337,4.343,8.345,5.264c3.048,0.948,6.136,1.266,9.108,0.948
			c-5.587-1.897-10.705-5.146-12.833-9.49c-2.256-4.29-1.524-9.248,0.165-14.107c1.697-4.89,4.415-9.667,7.396-14.295
			c3.024-4.661,6.35-9.218,9.857-13.689c3.675-4.761,7.125-9.767,10.124-15.173c2.922-5.4,5.558-11.191,6.78-17.67
			c0.613-3.22,0.861-6.631,0.273-10.11c-0.536-3.421-1.993-6.916-4.317-9.534c-2.351-2.602-5.334-4.372-8.34-5.296
			c-3.024-0.913-6.134-1.251-9.113-0.913c5.573,1.894,10.704,5.131,12.829,9.502c2.234,4.282,1.51,9.216-0.17,14.091
			c-1.729,4.862-4.408,9.671-7.407,14.3c-2.997,4.661-6.314,9.197-9.816,13.685c-3.671,4.761-7.138,9.783-10.137,15.188
			c-2.917,5.369-5.518,11.16-6.76,17.665c-0.588,3.222-0.857,6.648-0.282,10.09C378.405,196.085,379.839,199.591,382.16,202.21z"/>
		<path style="fill:#FEA400;" d="M444.748,231.216c2.364,2.622,5.316,4.343,8.348,5.28c3.024,0.941,6.114,1.287,9.09,0.929
			c-5.574-1.89-10.69-5.112-12.845-9.486c-2.229-4.251-1.504-9.25,0.169-14.091c1.737-4.889,4.438-9.667,7.416-14.311
			c3.016-4.645,6.337-9.203,9.845-13.673c3.682-4.761,7.142-9.784,10.115-15.169c2.946-5.42,5.582-11.18,6.798-17.674
			c0.603-3.221,0.875-6.631,0.297-10.105c-0.57-3.442-2.011-6.921-4.312-9.538c-2.38-2.602-5.341-4.339-8.371-5.28
			c-3.033-0.936-6.129-1.259-9.112-0.936c5.579,1.885,10.712,5.13,12.82,9.518c2.267,4.25,1.502,9.217-0.162,14.058
			c-1.721,4.91-4.408,9.688-7.4,14.316c-3.016,4.66-6.361,9.196-9.828,13.685c-3.685,4.777-7.166,9.768-10.116,15.173
			c-2.968,5.4-5.566,11.19-6.804,17.665c-0.59,3.222-0.861,6.664-0.268,10.105C440.967,225.139,442.383,228.59,444.748,231.216z"/>
		
			<radialGradient id="SVGID_00000137090570513017557480000009665570680867013791_" cx="406.9773" cy="352.0172" r="283.166" gradientUnits="userSpaceOnUse">
			<stop  offset="0.2611" style="stop-color:#FEA400"/>
			<stop  offset="0.7883" style="stop-color:#BF7B00"/>
		</radialGradient>
		<path style="fill:url(#SVGID_00000137090570513017557480000009665570680867013791_);" d="M597.107,434.76h-24.721
			c0-81.536-59.033-149.251-136.645-162.884c0.162-1.298,0.225-2.635,0.225-3.97c0-16.841-11.676-30.481-26.093-30.481
			c-14.437,0-26.131,13.64-26.131,30.481c0,1.03,0.064,2.044,0.145,3.073c-80.395,11.228-142.311,80.266-142.311,163.781H216.85
			c-8.063,0-14.599,3.268-14.599,7.299v1.326c0,4.032,6.537,7.3,14.599,7.3h380.258c8.063,0,14.597-3.268,14.597-7.3v-1.326
			C611.704,438.028,605.17,434.76,597.107,434.76z"/>
		<g>
			
				<linearGradient id="SVGID_00000052097942805694028160000015717002324081961351_" gradientUnits="userSpaceOnUse" x1="280.3457" y1="513.1973" x2="352.0898" y2="513.1973">
				<stop  offset="0.6294" style="stop-color:#FEA400"/>
				<stop  offset="1" style="stop-color:#BF7B00"/>
			</linearGradient>
			<path style="fill:url(#SVGID_00000052097942805694028160000015717002324081961351_);" d="M280.346,541.756h0.342
				c5.73,0,6.585-3.678,6.585-7.353v-49.768h-6.499v-1.539h21.891l14.194,41.302h0.171l14.452-41.302h20.608v1.539h-6.412v57.12
				h6.412v1.542h-27.106v-1.542h7.354v-55.582h-0.171l-19.925,57.124h-2.308l-20.438-58.15h-0.17v48.486
				c0,6.927,1.794,8.122,6.414,8.122h1.195v1.542h-16.588V541.756z"/>
			
				<linearGradient id="SVGID_00000049192545356029776660000006552302452907509140_" gradientUnits="userSpaceOnUse" x1="356.3579" y1="513.1973" x2="406.5537" y2="513.1973">
				<stop  offset="0.6294" style="stop-color:#FEA400"/>
				<stop  offset="1" style="stop-color:#BF7B00"/>
			</linearGradient>
			<path style="fill:url(#SVGID_00000049192545356029776660000006552302452907509140_);" d="M356.358,541.756h6.926v-57.12h-6.926
				v-1.539h47.8v17.016h-1.539v-1.195c0-7.781-5.728-14.281-15.904-14.281h-10.09v26.166h5.9c5.559,0,8.465-3.164,8.465-11.286
				v-0.944h1.54v27.025h-1.54v-1.968c0-6.071-2.907-11.288-8.465-11.288h-5.9v29.415h12.314c14.024,0,16.078-11.627,16.078-16.503
				v-1.197h1.538v19.242h-50.196V541.756z"/>
			
				<linearGradient id="SVGID_00000090269657005023327270000002561566287886534587_" gradientUnits="userSpaceOnUse" x1="412.877" y1="513.71" x2="471.8799" y2="513.71">
				<stop  offset="0.6294" style="stop-color:#FEA400"/>
				<stop  offset="1" style="stop-color:#BF7B00"/>
			</linearGradient>
			<path style="fill:url(#SVGID_00000090269657005023327270000002561566287886534587_);" d="M412.877,541.756h0.596h0.943
				c2.649,0,5.129-0.938,5.129-6.157v-45.917l-3.762-5.046h-2.65v-1.539h17.615l32.236,41.473h0.171v-35.059
				c0-3.249-2.05-4.875-5.813-4.875h-1.625v-1.539h16.163v1.539h-1.199c-3.847,0-5.472,2.481-5.472,4.617v55.07h-3.593
				l-39.847-51.99h-0.171v43.693c0,4.874,1.883,5.729,6.668,5.729h0.77v1.542h-16.16V541.756z"/>
			
				<linearGradient id="SVGID_00000144298752054605198230000000348998808038166457_" gradientUnits="userSpaceOnUse" x1="474.6064" y1="513.8809" x2="533.6113" y2="513.8809">
				<stop  offset="0.6294" style="stop-color:#FEA400"/>
				<stop  offset="1" style="stop-color:#BF7B00"/>
			</linearGradient>
			<path style="fill:url(#SVGID_00000144298752054605198230000000348998808038166457_);" d="M474.606,483.097h26.936v1.539h-6.925
				v37.623c0,10.946,2.479,19.326,14.965,19.326c8.294,0,15.305-5.641,15.305-17.273v-32.493c0-4.959-1.366-7.183-5.727-7.183h-2.48
				v-1.539h16.933v1.539h-2.226c-3.079,0-4.444,2.224-4.444,7.183v31.984c0,12.567-6.84,20.862-22.576,20.862
				c-13.939,0-23.09-8.039-23.09-21.292v-38.737h-6.669V483.097z"/>
			<path style="fill:#EAEAEA;" d="M328.885,607.462c0,0.224,0,0.393,0.057,0.505l2.063,1.949c0.111,0.112,0.223,0.278,0.223,0.391
				c0,0.167-0.167,0.222-0.335,0.222h-7.638c-0.223,0-0.334-0.055-0.334-0.222c0-0.112,0.056-0.278,0.224-0.391l1.728-1.949
				c0.111-0.112,0.111-0.281,0.111-0.505v-24.527c0-0.334-0.278-0.726-0.501-1.002l-1.672-1.729c-0.334-0.28-0.279-0.668,0-0.668
				h1.728c0.335,0,0.446-0.168,0.446-0.503v-4.684c0-3.846,2.286-5.63,4.906-5.63c2.564,0,4.293,2.619,4.293,4.737
				c0,0.168-0.112,0.336-0.223,0.336c-0.224,0-0.39-0.224-0.558-0.448c-0.891-1.168-2.006-2.228-3.122-2.228
				c-1.003,0-1.393,1.06-1.393,2.34v5.576c0,0.335,0.057,0.503,0.447,0.503h1.672c0.278,0,0.333,0.388,0,0.668l-1.672,1.729
				c-0.223,0.276-0.447,0.668-0.447,1.002V607.462z"/>
			<path style="fill:#EAEAEA;" d="M346.442,593.694c0,13.768-3.01,16.834-6.634,16.834c-3.567,0-6.578-3.066-6.578-16.834
				c0-10.982,3.011-14.158,6.578-14.158C343.433,579.536,346.442,582.712,346.442,593.694z M342.095,593.694
				c0-9.7-0.781-11.762-2.286-11.762c-1.449,0-2.23,2.061-2.23,11.762c0,12.542,0.781,14.44,2.23,14.44
				C341.313,608.134,342.095,606.236,342.095,593.694z"/>
			<path style="fill:#EAEAEA;" d="M362.55,593.694c0,13.768-3.011,16.834-6.633,16.834c-3.568,0-6.579-3.066-6.579-16.834
				c0-10.982,3.01-14.158,6.579-14.158C359.539,579.536,362.55,582.712,362.55,593.694z M358.202,593.694
				c0-9.7-0.781-11.762-2.285-11.762c-1.451,0-2.231,2.061-2.231,11.762c0,12.542,0.78,14.44,2.231,14.44
				C357.421,608.134,358.202,606.236,358.202,593.694z"/>
			<path style="fill:#EAEAEA;" d="M374.308,571.396c0-0.224-0.055-0.333-0.223-0.444l-1.617-1.618
				c-0.167-0.113-0.279-0.279-0.279-0.389c0-0.17,0.168-0.225,0.39-0.225h5.296c0.223,0,0.334,0.11,0.334,0.334v38.408
				c0,0.224,0,0.393,0.056,0.505l1.728,1.949c0.167,0.112,0.278,0.278,0.278,0.391c0,0.167-0.167,0.222-0.391,0.222h-5.184
				c-0.224,0-0.391-0.109-0.391-0.222v-1.894h-0.111c-0.948,1.114-1.951,2.116-3.736,2.116c-2.453,0-5.017-1.393-5.017-17.113
				c0-12.433,2.787-13.879,5.073-13.879c1.617,0,2.731,0.89,3.68,1.951h0.111V571.396z M374.308,586.113
				c0-2.732-1.671-4.181-2.454-4.181c-1.393,0-2.063,1.169-2.063,11.482c0,13.435,0.558,14.719,2.007,14.719
				c1.338,0,2.509-1.729,2.509-4.461V586.113z"/>
			<path style="fill:#EAEAEA;" d="M408.366,589.96c0.222,0,0.334,0.054,0.334,0.278c0,0.111-0.112,0.392-0.334,0.502l-1.785,1.672
				c0,8.307-0.78,11.986-2.787,14.438c0.278,0.56,0.613,1.005,1.226,1.005c1.006,0,2.064-1.171,2.454-1.841
				c0.166-0.279,0.502-0.279,0.502,0.112c0,1.729-1.172,4.402-4.016,4.402c-1.226,0-2.174-0.445-2.897-1.17
				c-0.783,0.558-2.119,1.17-3.903,1.17c-5.575,0-8.808-4.011-8.808-9.81c0-5.241,2.006-8.361,4.348-11.428l1.059-1.396
				l-0.558-2.227c-0.613-2.398-1.282-5.688-1.282-9.368c0-4.347,2.396-7.58,5.686-7.58c2.954,0,4.738,2.397,4.738,6.3
				c0,5.352-2.565,9.477-4.014,11.596l-0.724,1.057l0.501,1.953c1.115,4.403,2.732,10.535,4.07,13.99
				c1.114-1.672,2.119-10.144,0.224-11.704l-1.673-1.227c-0.224-0.166-0.391-0.278-0.391-0.445c0-0.166,0.167-0.278,0.391-0.278
				H408.366z M394.763,591.911c-1.561,1.783-2.452,4.457-2.452,8.028c0,4.904,2.396,7.915,4.85,7.915
				c1.003,0,1.839-0.336,2.34-0.893c-1.505-3.235-3.122-8.642-4.069-12.377L394.763,591.911z M397.216,583.271
				c1.282-1.783,2.397-4.962,2.397-8.027c0-2.007-0.335-3.848-2.063-3.848c-2.621,0-3.011,4.405-1.784,9.143l0.892,3.511
				L397.216,583.271z"/>
			<path style="fill:#EAEAEA;" d="M425.698,571.396c0-0.224-0.057-0.333-0.223-0.444l-1.618-1.618
				c-0.168-0.113-0.278-0.279-0.278-0.389c0-0.17,0.167-0.225,0.392-0.225h5.294c0.223,0,0.335,0.11,0.335,0.334v38.408
				c0,0.224,0,0.393,0.056,0.505l1.727,1.949c0.168,0.112,0.28,0.278,0.28,0.391c0,0.167-0.17,0.222-0.392,0.222h-5.185
				c-0.223,0-0.389-0.109-0.389-0.222v-1.894h-0.112c-0.947,1.114-1.951,2.116-3.735,2.116c-2.453,0-5.018-1.393-5.018-17.113
				c0-12.433,2.787-13.879,5.072-13.879c1.62,0,2.733,0.89,3.681,1.951h0.112V571.396z M425.698,586.113
				c0-2.732-1.676-4.181-2.455-4.181c-1.393,0-2.062,1.169-2.062,11.482c0,13.435,0.557,14.719,2.005,14.719
				c1.34,0,2.512-1.729,2.512-4.461V586.113z"/>
			<path style="fill:#EAEAEA;" d="M438.181,607.462c0,0.224,0,0.393,0.056,0.505l1.896,1.949c0.166,0.112,0.223,0.278,0.223,0.391
				c0,0.167-0.111,0.222-0.334,0.222h-7.47c-0.224,0-0.335-0.055-0.335-0.222c0-0.112,0.055-0.278,0.222-0.391l1.728-1.949
				c0.112-0.112,0.112-0.281,0.112-0.505v-25.253c0-0.222-0.054-0.333-0.224-0.445l-1.616-1.56
				c-0.167-0.169-0.222-0.336-0.222-0.448c0-0.166,0.111-0.22,0.335-0.22h5.35c0.169,0,0.279,0.111,0.279,0.332v1.895h0.112
				c0.892-1.114,1.84-2.228,3.121-2.228c1.84,0,3.01,2.953,3.01,4.736c0,0.278-0.055,0.502-0.277,0.502
				c-0.223,0-0.335-0.224-0.446-0.502c-0.613-1.507-1.727-2.116-2.897-2.116c-1.618,0-2.622,2.282-2.622,5.128V607.462z"/>
			<path style="fill:#EAEAEA;" d="M446.651,582.209c0-0.222-0.056-0.333-0.167-0.445l-1.673-1.56
				c-0.111-0.169-0.224-0.336-0.224-0.448c0-0.166,0.167-0.22,0.335-0.22h5.35c0.169,0,0.28,0.111,0.28,0.332v27.594
				c0,0.224,0,0.393,0.112,0.505l1.728,1.949c0.11,0.112,0.224,0.278,0.224,0.391c0,0.167-0.113,0.222-0.336,0.222h-7.358
				c-0.168,0-0.335-0.055-0.335-0.222c0-0.112,0.112-0.278,0.224-0.391l1.727-1.949c0.113-0.112,0.113-0.281,0.113-0.505V582.209z
				 M450.554,571.672c0,1.453-0.891,2.956-2.007,2.956c-1.172,0-2.063-1.503-2.063-2.956c0-1.504,0.891-2.952,2.063-2.952
				C449.663,568.72,450.554,570.168,450.554,571.672z"/>
			<path style="fill:#EAEAEA;" d="M459.138,581.487h0.112c1.001-1.062,1.949-1.951,3.845-1.951c2.787,0,4.627,1.951,4.627,5.687
				v22.239c0,0.224,0,0.393,0.112,0.505l1.726,1.949c0.111,0.112,0.224,0.278,0.224,0.391c0,0.167-0.166,0.222-0.335,0.222h-7.358
				c-0.223,0-0.335-0.055-0.335-0.222c0-0.112,0.112-0.278,0.224-0.391l1.729-1.949c0.111-0.112,0.111-0.281,0.111-0.505v-22.296
				c0-2.119-0.613-3.233-1.895-3.233c-1.338,0-2.787,1.838-2.787,4.849v20.681c0,0.224,0,0.393,0.056,0.505l1.727,1.949
				c0.167,0.112,0.279,0.278,0.279,0.391c0,0.167-0.167,0.222-0.334,0.222h-7.359c-0.222,0-0.334-0.055-0.334-0.222
				c0-0.112,0.056-0.278,0.222-0.391l1.729-1.949c0.112-0.112,0.112-0.281,0.112-0.505v-25.253c0-0.222-0.058-0.333-0.169-0.445
				l-1.673-1.56c-0.109-0.169-0.222-0.336-0.222-0.448c0-0.166,0.166-0.22,0.334-0.22h5.353c0.224,0,0.279,0.111,0.279,0.332
				V581.487z"/>
			<path style="fill:#EAEAEA;" d="M476.304,592.134h0.111l3.791-9.533c0.224-0.444,0.111-0.949-0.168-1.282l-1.059-1.395
				c-0.056-0.11-0.112-0.168-0.112-0.222c0-0.112,0.057-0.166,0.28-0.166h5.742c0.165,0,0.223,0.054,0.223,0.22
				c0,0.112-0.058,0.225-0.28,0.448l-1.003,0.947c-0.277,0.336-0.445,0.725-0.668,1.227l-3.902,9.756l5.072,15.052
				c0.167,0.5,0.446,0.948,0.613,1.115l1.56,1.503c0.168,0.112,0.28,0.279,0.28,0.448c0,0.167-0.112,0.276-0.28,0.276h-6.186
				c-0.224,0-0.224-0.109-0.224-0.222s0.112-0.278,0.224-0.447l0.613-0.835c0.112-0.279,0.167-0.612,0.054-0.947l-3.733-11.095
				l-0.947,2.398v8.808c0,0.166,0.057,0.333,0.225,0.445l1.337,1.282c0.111,0.112,0.223,0.278,0.223,0.391
				c0,0.167-0.169,0.222-0.335,0.222h-7.08c-0.224,0-0.335-0.055-0.335-0.222c0-0.112,0.058-0.278,0.224-0.391l1.616-1.282
				c0.169-0.112,0.224-0.279,0.224-0.445v-37.126c0-0.169-0.055-0.336-0.224-0.447l-1.616-1.282
				c-0.166-0.113-0.224-0.279-0.224-0.389c0-0.17,0.111-0.225,0.335-0.225h5.353c0.223,0,0.278,0.11,0.278,0.334V592.134z"/>
		</g>
	</g>
	<g>
		<defs>
			<path id="SVGID_00000029742579234399049500000002389708885633728668_" d="M589.755,434.76h-24.721
				c0-81.536-59.032-149.251-136.646-162.884c0.162-1.298,0.228-2.635,0.228-3.97c0-16.841-11.679-30.481-26.095-30.481
				c-14.437,0-26.131,13.64-26.131,30.481c0,1.03,0.064,2.044,0.145,3.073c-80.395,11.228-142.311,80.266-142.311,163.781h-24.727
				c-8.062,0-14.598,3.268-14.598,7.299v1.326c0,4.032,6.536,7.3,14.598,7.3h380.258c8.063,0,14.598-3.268,14.598-7.3v-1.326
				C604.352,438.028,597.818,434.76,589.755,434.76z"/>
		</defs>
		<clipPath id="SVGID_00000016754451168534048380000017677866475129780411_">
			<use xlink:href="#SVGID_00000029742579234399049500000002389708885633728668_"  style="overflow:visible;"/>
		</clipPath>
		<g style="clip-path:url(#SVGID_00000016754451168534048380000017677866475129780411_);">
			<path style="fill:#3E3320;" d="M396.33,315.705l-0.648,36.996c0,1.459-0.824,3.345-2.373,3.345l0,0h-0.83l0,0l0,0
				c-1.548,0-2.374-2.072-2.374-3.569l-2.477-37.062c-0.634,0.002-1.283,0.002-1.961,0.002c-1.183,0-2.29-0.007-3.341-0.007
				l-2.477,37.574c0.008,1.359-0.819,3.063-2.367,3.063l0,0h-0.831l0,0l0,0c-1.548,0-2.374-2.072-2.374-3.569l-0.642-36.625
				c-8.22,1.554-8.218,8.478-8.218,38.806c0,10.23,3.387,19.142,9.436,23.928c0.829,0.652,1.703,1.233,2.628,1.73
				c0.918,0.487,1.888,0.879,2.899,1.192l-2.779,127.536c0,2.662,4.723,4.835,6.941,4.835h3.652c2.217,0,6.941-2.167,6.941-4.829
				l-2.787-128.016c1.02-0.415,1.973-0.952,2.887-1.554c1.126-0.74,2.167-1.614,3.126-2.607c4.863-5.039,7.559-13.099,7.559-22.212
				C405.92,323.202,405.414,316.93,396.33,315.705z"/>
			<path style="fill:#3E3320;" d="M422.853,393.557v19.746c0,2.09,0.435,4.027,1.159,5.688c1.218-1.516,2.933-1.537,3.79-1.537
				c0.62,0,1.295,0.057,2.007,0.107c0.754,0.057,1.552,0.112,2.382,0.112h0.805c0.829,0,1.63-0.06,2.383-0.112
				c0.715-0.057,1.389-0.107,2.007-0.107c0.858,0,2.574,0.022,3.792,1.537c0.721-1.66,1.157-3.594,1.157-5.688v-103.11
				C425.727,309.885,422.853,387.552,422.853,393.557z"/>
			<path style="fill:#3E3320;" d="M437.386,420.963c-0.578,0-1.206,0.045-1.864,0.098c-0.8,0.065-1.649,0.119-2.523,0.119h-0.807
				c-0.878,0-1.729-0.06-2.522-0.119c-0.664-0.053-1.287-0.098-1.866-0.098c-1.087,0-1.751,0.139-2.135,0.697
				c-0.324,0.465-0.46,1.221-0.46,2.474v78.03c0,5.49,3.134,9.962,6.983,9.962h0.805c3.853,0,6.978-4.465,6.978-9.962v-78.03
				c0-1.253-0.133-2.009-0.451-2.474C439.137,421.102,438.479,420.963,437.386,420.963z"/>
		</g>
	</g>
</g>
</svg>
